<svg xmlns="http://www.w3.org/2000/svg" width="32" height="32" viewBox="0 0 32 32">
    <g fill="none" fill-rule="evenodd">
        <circle cx="16" cy="16" r="16" fill="#FFF"/>
        <g fill="#1E1E1E" fill-rule="nonzero">
            <path d="M11.693-.307c.39-.39 1.024-.39 1.414 0 .355.355.387.91.097 1.302l-.097.112-12 12c-.39.39-1.024.39-1.414 0-.355-.355-.387-.91-.097-1.302l.097-.112 12-12z" transform="translate(9.6 9.6)"/>
            <path d="M-.307-.307C.048-.662.603-.694.995-.404l.112.097 12 12c.39.39.39 1.024 0 1.414-.355.355-.91.387-1.302.097l-.112-.097-12-12c-.39-.39-.39-1.024 0-1.414z" transform="translate(9.6 9.6)"/>
        </g>
    </g>
</svg>
