<?xml version="1.0" encoding="UTF-8"?>
<svg width="32px" height="32px" viewBox="0 0 32 32" version="1.1" xmlns="http://www.w3.org/2000/svg" xmlns:xlink="http://www.w3.org/1999/xlink">
    <!-- Generator: sketchtool 64 (101010) - https://sketch.com -->
    <title>CA7E07D6-BDAD-4B53-B0A6-FFF853291F0B</title>
    <desc>Created with sketchtool.</desc>
    <g id="Mobile" stroke="none" stroke-width="1" fill="none" fill-rule="evenodd">
        <g id="credit-line-onboarding2" transform="translate(-164.000000, -120.000000)" fill="#A990D0" fill-rule="nonzero">
            <g id="Icon/Check/Purple" transform="translate(164.000000, 120.000000)">
                <path d="M27.3131465,4.68585357 C21.0653417,-1.56195119 10.9349916,-1.56195119 4.68585357,4.68585357 C-1.56195119,10.9349916 -1.56195119,21.0640084 4.68585357,27.3131465 C10.9336583,33.5609512 21.0640084,33.5609512 27.3131465,27.3131465 C33.5622845,21.0653417 33.5622845,10.9336583 27.3131465,4.68585357 Z M23.6785934,11.5336396 L14.8655355,21.8146516 L8.53240003,17.0654667 C7.94308511,16.6241472 7.82442215,15.7881733 8.2657417,15.1988584 C8.70706124,14.6108767 9.54170182,14.4895472 10.13235,14.9322 L14.465548,18.1827651 L21.65199,9.79769382 C22.131975,9.2403779 22.9746154,9.17504661 23.5319313,9.65369832 C24.0932471,10.13235 24.1585784,10.9749904 23.6785934,11.5336396 Z" id="Check"></path>
            </g>
        </g>
    </g>
</svg>