<svg xmlns="http://www.w3.org/2000/svg" width="24" height="24" viewBox="0 0 24 24">
    <g fill="none" fill-rule="evenodd">
        <circle cx="12" cy="12" r="12" fill="#FFF"/>
        <g>
            <path d="M0 0L14.4 0 14.4 14.4 0 14.4z" transform="translate(3 3) rotate(90 7.2 9)"/>
            <path fill="#1E1E1E" fill-rule="nonzero" d="M4.757 4.757c-.292.293-.292.768 0 1.061l3.094 3.094c.049.048.049.128 0 .176l-3.094 3.094c-.292.293-.292.768 0 1.06.293.293.768.293 1.061 0l3.094-3.093c.048-.049.128-.049.176 0l3.094 3.094c.293.292.768.292 1.06 0 .293-.293.293-.768 0-1.061L10.15 9.088c-.049-.048-.049-.128 0-.176l3.094-3.094c.292-.293.292-.768 0-1.06-.293-.293-.768-.293-1.061 0L9.088 7.85c-.048.049-.128.049-.176 0L5.818 4.757c-.293-.292-.768-.292-1.06 0z" transform="translate(3 3)"/>
        </g>
    </g>
</svg>
